<svg width="21" height="16" viewBox="0 0 21 16" fill="none" xmlns="http://www.w3.org/2000/svg">
<path d="M18.2568 14H16.2568V5.25L10.2568 9L4.25684 5.25V14H2.25684V2H3.45684L10.2568 6.25L17.0568 2H18.2568V14ZM18.2568 0H2.25684C1.14684 0 0.256836 0.89 0.256836 2V14C0.256836 14.5304 0.46755 15.0391 0.842622 15.4142C1.21769 15.7893 1.7264 16 2.25684 16H18.2568C18.7873 16 19.296 15.7893 19.671 15.4142C20.0461 15.0391 20.2568 14.5304 20.2568 14V2C20.2568 1.46957 20.0461 0.960859 19.671 0.585786C19.296 0.210714 18.7873 0 18.2568 0Z" fill="#65F3AC"/>
</svg>
