<svg width="17" height="17" viewBox="0 0 17 17" fill="none" xmlns="http://www.w3.org/2000/svg">
<path d="M8.50814 0.666504C7.41379 0.666504 6.33016 0.882052 5.31911 1.30084C4.30806 1.71963 3.3894 2.33346 2.61558 3.10728C1.05278 4.67008 0.174805 6.7897 0.174805 8.99984C0.174805 12.6832 2.56647 15.8082 5.8748 16.9165C6.29147 16.9832 6.4248 16.7248 6.4248 16.4998V15.0915C4.11647 15.5915 3.6248 13.9748 3.6248 13.9748C3.24147 13.0082 2.6998 12.7498 2.6998 12.7498C1.94147 12.2332 2.75814 12.2498 2.75814 12.2498C3.59147 12.3082 4.03314 13.1082 4.03314 13.1082C4.75814 14.3748 5.98314 13.9998 6.45814 13.7998C6.53314 13.2582 6.7498 12.8915 6.98314 12.6832C5.13314 12.4748 3.19147 11.7582 3.19147 8.58317C3.19147 7.65817 3.50814 6.9165 4.0498 6.32484C3.96647 6.1165 3.6748 5.24984 4.13314 4.12484C4.13314 4.12484 4.83314 3.89984 6.4248 4.97484C7.08314 4.7915 7.7998 4.69984 8.50814 4.69984C9.21647 4.69984 9.93314 4.7915 10.5915 4.97484C12.1831 3.89984 12.8831 4.12484 12.8831 4.12484C13.3415 5.24984 13.0498 6.1165 12.9665 6.32484C13.5081 6.9165 13.8248 7.65817 13.8248 8.58317C13.8248 11.7665 11.8748 12.4665 10.0165 12.6748C10.3165 12.9332 10.5915 13.4415 10.5915 14.2165V16.4998C10.5915 16.7248 10.7248 16.9915 11.1498 16.9165C14.4581 15.7998 16.8415 12.6832 16.8415 8.99984C16.8415 7.90549 16.6259 6.82186 16.2071 5.81081C15.7883 4.79976 15.1745 3.8811 14.4007 3.10728C13.6269 2.33346 12.7082 1.71963 11.6972 1.30084C10.6861 0.882052 9.60249 0.666504 8.50814 0.666504Z" fill="#65F3AC"/>
</svg>
