<svg width="18" height="17" viewBox="0 0 18 18" fill="none" xmlns="http://www.w3.org/2000/svg">
<path d="M8.99892 4.76221C7.87476 4.76221 6.79664 5.20878 6.00173 6.00368C5.20683 6.79859 4.76025 7.87671 4.76025 9.00087C4.76025 10.125 5.20683 11.2032 6.00173 11.9981C6.79664 12.793 7.87476 13.2395 8.99892 13.2395C10.1231 13.2395 11.2012 12.793 11.9961 11.9981C12.791 11.2032 13.2376 10.125 13.2376 9.00087C13.2376 7.87671 12.791 6.79859 11.9961 6.00368C11.2012 5.20878 10.1231 4.76221 8.99892 4.76221ZM8.99892 11.7536C8.2686 11.7536 7.5682 11.4635 7.05178 10.9471C6.53537 10.4307 6.24525 9.73027 6.24525 8.99996C6.24525 8.26964 6.53537 7.56923 7.05178 7.05282C7.5682 6.53641 8.2686 6.24629 8.99892 6.24629C9.72924 6.24629 10.4296 6.53641 10.9461 7.05282C11.4625 7.56923 11.7526 8.26964 11.7526 8.99996C11.7526 9.73027 11.4625 10.4307 10.9461 10.9471C10.4296 11.4635 9.72924 11.7536 8.99892 11.7536Z" fill="#65F3AC"/>
<path d="M13.4056 5.5945C13.9514 5.5945 14.3938 5.15208 14.3938 4.60633C14.3938 4.06058 13.9514 3.61816 13.4056 3.61816C12.8599 3.61816 12.4175 4.06058 12.4175 4.60633C12.4175 5.15208 12.8599 5.5945 13.4056 5.5945Z" fill="#65F3AC"/>
<path d="M16.822 3.60205C16.6098 3.05405 16.2855 2.55639 15.8699 2.14094C15.4543 1.72548 14.9565 1.40138 14.4085 1.18938C13.7671 0.948627 13.0895 0.818446 12.4046 0.804383C11.5219 0.765883 11.2423 0.754883 9.00379 0.754883C6.76529 0.754883 6.47837 0.754883 5.60295 0.804383C4.91856 0.817726 4.24148 0.947934 3.60095 1.18938C3.05273 1.40113 2.55482 1.72515 2.13918 2.14063C1.72353 2.55612 1.39933 3.0539 1.18737 3.60205C0.946566 4.24336 0.816683 4.92098 0.803286 5.60588C0.76387 6.48772 0.751953 6.7673 0.751953 9.00672C0.751953 11.2452 0.751953 11.5303 0.803286 12.4075C0.817036 13.0932 0.946286 13.7697 1.18737 14.4123C1.39992 14.9602 1.72444 15.4578 2.14019 15.8733C2.55593 16.2887 3.05376 16.6128 3.60187 16.825C4.24118 17.0754 4.91854 17.2149 5.60479 17.2375C6.48754 17.276 6.76712 17.2879 9.00562 17.2879C11.2441 17.2879 11.531 17.2879 12.4065 17.2375C13.0913 17.2235 13.7688 17.0937 14.4103 16.8534C14.9582 16.6409 15.4559 16.3165 15.8714 15.9009C16.287 15.4854 16.6114 14.9877 16.8239 14.4398C17.065 13.7981 17.1942 13.1216 17.208 12.436C17.2474 11.5541 17.2593 11.2745 17.2593 9.03513C17.2593 6.79572 17.2593 6.51155 17.208 5.6343C17.1973 4.93972 17.0667 4.25219 16.822 3.60205ZM15.7055 12.3397C15.6996 12.868 15.6032 13.3913 15.4205 13.887C15.2828 14.2435 15.072 14.5672 14.8018 14.8373C14.5315 15.1075 14.2077 15.318 13.8511 15.4555C13.3609 15.6374 12.8431 15.7338 12.3203 15.7405C11.4495 15.7809 11.2038 15.791 8.97079 15.791C6.73595 15.791 6.5077 15.791 5.62037 15.7405C5.0978 15.7342 4.58025 15.6377 4.09045 15.4555C3.73267 15.3189 3.40754 15.1087 3.1361 14.8385C2.86467 14.5683 2.65297 14.2442 2.5147 13.887C2.33453 13.3967 2.23816 12.8795 2.22962 12.3571C2.1902 11.4863 2.18104 11.2406 2.18104 9.00763C2.18104 6.77372 2.18104 6.54547 2.22962 5.65722C2.23554 5.12924 2.33197 4.60618 2.5147 4.1108C2.79429 3.38755 3.3672 2.8183 4.09045 2.54147C4.58049 2.36009 5.09789 2.26368 5.62037 2.25638C6.49212 2.21697 6.73687 2.20597 8.97079 2.20597C11.2047 2.20597 11.4339 2.20597 12.3203 2.25638C12.8432 2.26267 13.361 2.35911 13.8511 2.54147C14.2076 2.67922 14.5314 2.88998 14.8017 3.16024C15.0719 3.4305 15.2827 3.75428 15.4205 4.1108C15.6006 4.60117 15.697 5.11836 15.7055 5.64072C15.745 6.51247 15.755 6.75722 15.755 8.99113C15.755 11.2241 15.755 11.4643 15.7156 12.3406L15.7055 12.3397Z" fill="#65F3AC"/>
</svg>
