<svg width="17" height="16" viewBox="0 0 17 16" fill="none" xmlns="http://www.w3.org/2000/svg">
<path d="M4.03356 15.875H0.76825V5.35962H4.03356V15.875ZM2.39894 3.92525C1.35494 3.92525 0.507812 3.06012 0.507812 2.01612C0.507812 1.51457 0.707056 1.03355 1.06171 0.678898C1.41636 0.324243 1.89738 0.125 2.39894 0.125C2.9005 0.125 3.38151 0.324243 3.73616 0.678898C4.09082 1.03355 4.29006 1.51457 4.29006 2.01612C4.29006 3.06012 3.44294 3.92525 2.39894 3.92525ZM16.2544 15.875H12.9964V10.7562C12.9964 9.53619 12.9717 7.97187 11.2988 7.97187C9.60119 7.97187 9.34075 9.29712 9.34075 10.6685V15.875H6.07881V5.35962H9.21025V6.794H9.25581C9.69175 5.96769 10.7566 5.09581 12.3451 5.09581C15.6498 5.09581 16.2572 7.27213 16.2572 10.0987V15.875H16.2544Z" fill="#65F3AC"/>
</svg>
